# xmcd
#
# Track frame offsets: 
#        151
#        39495
#        54286
#        69699
#        89263
#        102090
#        119272
#        122184
#        129168
#        146664
#        153171
#        174776
#        196363
#        217834
#        237105
#        268050
#        272934
#        290023
#        306081
#        324545
#
# Disc length: 4662 seconds
#
# Revision: 0
# Processed by: cddbd v1.5.2PL0 Copyright (c) Steve Scherf et al.
# Submitted via: ExactAudioCopyFreeDBPlugin 1.0
#
DISCID=1e123414
DTITLE=Olivier Opdebeek - Grétry - La jeunesse de Pierre Le Grand
DYEAR=2002
DGENRE=Opera
TTITLE0=La jeunesse de la Pierre Le Grand, opera - Ouverture
TTITLE1=Act 1. Scene 1. Travaillons et chantons
TTITLE2=Act 1. Scene 2. Oui, tes services, ta constance feront ma gloi
TTITLE2=re, mon bonheur
TTITLE3=Act 1. Scene 3. Oui, mes amis, la bienfaisance est la source d
TTITLE3=u vrai bonheur
TTITLE4=Act 1. Scene 4. J'étais au bord de la fontaine
TTITLE5=Act 1. Scene 4. Morbleu! Sans m'vanter je puis dire, je suis u
TTITLE5=n bon vivant
TTITLE6=Act 1. Scene 4. Que se passe-t-il. Toi, toi, toi et toi, joign
TTITLE6=ez-vous à notre troupe
TTITLE7=Act 1. Final. Célébrons cette journée
TTITLE8=Act 1. Final. Mais pour l'heure célébrons Catherine, Reine élu
TTITLE8=e par le peupl
TTITLE9=Act 2. Scene 1. Pierre Le Grand, il ya un siècle
TTITLE10=Act 2. Scene 2. Je vais m'unir à ce que j'aime
TTITLE11=Act 2. Scene 3. Que je bénis ma destinée!
TTITLE12=Act 2. Scene 4. Je dis un célèbre empereur
TTITLE13=Act 2. Scene 5. O ciel, o ciel, que viens-je d'entendre
TTITLE14=Act 2. Scenes 8 - 10. Qu'entends-je! Pierre, Pierre... Pierre
TTITLE14=!
TTITLE15=Act 2. Scenes 8 to 10. Ah, laissez-moi! je pars
TTITLE16=Act 3. Scene 1. Qu'endends-je! O ciel! Que dites-vous
TTITLE17=Act 3. Scene 3. Oui, Pierre est notre prince et notre maître 
TTITLE17=Marche
TTITLE18=Act 3. Scene 5. Ah soyez notre souveraine
TTITLE19=Final. Pour nos instruire dans les arts
EXTD=
EXTT0=
EXTT1=
EXTT2=
EXTT3=
EXTT4=
EXTT5=
EXTT6=
EXTT7=
EXTT8=
EXTT9=
EXTT10=
EXTT11=
EXTT12=
EXTT13=
EXTT14=
EXTT15=
EXTT16=
EXTT17=
EXTT18=
EXTT19=
PLAYORDER=
